<?xml version="1.0" standalone="no"?>
<!DOCTYPE svg PUBLIC "-//W3C//DTD SVG 20010904//EN"
 "http://www.w3.org/TR/2001/REC-SVG-20010904/DTD/svg10.dtd">
<svg version="1.0" xmlns="http://www.w3.org/2000/svg"
 width="93.000000pt" height="23.000000pt" viewBox="0 0 93.000000 23.000000"
 preserveAspectRatio="xMidYMid meet">

<g transform="translate(0.000000,23.000000) scale(0.100000,-0.100000)"
fill="#000000" stroke="none">
<path d="M1 118 l1 -113 24 50 c13 28 35 76 48 108 39 87 54 80 112 -53 27
-61 52 -110 56 -110 5 0 8 36 8 80 0 72 2 80 19 80 11 0 21 -6 24 -12 4 -10 7
-10 18 0 18 17 54 15 73 -4 11 -11 16 -35 16 -80 0 -50 3 -64 15 -64 12 0 15
16 15 80 0 79 0 80 25 80 25 0 25 -1 25 -80 l0 -80 225 0 225 0 0 115 0 115
-465 0 -465 0 1 -112z m479 82 c0 -13 -7 -20 -20 -20 -13 0 -20 7 -20 20 0 13
7 20 20 20 13 0 20 -7 20 -20z"/>
<path d="M101 129 c-16 -46 -14 -49 19 -49 34 0 34 1 18 47 -15 41 -23 42 -37
2z"/>
<path d="M318 119 c-14 -8 -18 -23 -18 -64 0 -54 0 -55 30 -55 29 0 30 1 30
48 0 58 -17 86 -42 71z"/>
<path d="M61 31 c-6 -11 -11 -22 -11 -25 0 -3 31 -6 70 -6 68 0 69 1 61 22 -7
19 -17 24 -59 26 -42 2 -53 0 -61 -17z"/>
</g>
</svg>
